<svg width="720" height="720" viewBox="0 0 720 720" fill="none" xmlns="http://www.w3.org/2000/svg">
    <circle cx="360" cy="360" r="360" fill="#FFFEFE"/>
    <path d="M143.367 285.656C156.612 294.119 160.515 305.387 165.131 319.977C167.681 327.917 170.464 335.713 173.5 343.473C175.433 348.441 177.176 353.439 178.789 358.523C180.361 363.463 182.135 368.112 184.302 372.803C186.102 377.23 187.174 381.895 188.299 386.539C192.172 380.622 194.362 374.532 196.468 367.819C197.125 365.803 197.785 363.788 198.447 361.773C199.476 358.636 200.502 355.498 201.506 352.352C203.666 345.627 206.035 339.008 208.5 332.396C210.456 327.124 212.242 321.811 213.964 316.455C215.178 312.728 216.513 309.075 217.913 305.417C218.376 304.194 218.84 302.971 219.317 301.712C223.298 293.135 228.546 287.248 237.443 283.767C245.134 281.708 254.06 281.075 261.505 284.031C263.104 285.189 263.104 285.189 264.887 286.696C265.718 287.354 266.549 288.013 267.404 288.691C274.493 294.681 278.334 300.738 281.226 309.577C281.331 311.392 281.377 313.211 281.39 315.029C281.406 316.724 281.406 316.724 281.421 318.453C281.427 319.693 281.433 320.933 281.439 322.21C281.449 323.516 281.459 324.822 281.47 326.167C281.502 330.5 281.523 334.832 281.541 339.165C281.545 339.903 281.548 340.641 281.552 341.401C281.583 348.363 281.61 355.325 281.628 362.287C281.65 371.182 281.693 380.077 281.764 388.971C281.812 395.231 281.837 401.491 281.844 407.751C281.849 411.486 281.865 415.222 281.905 418.957C281.95 423.13 281.946 427.301 281.938 431.475C281.959 432.704 281.979 433.933 282 435.2C281.932 443.038 280.55 447.507 275.099 453.101C274.591 453.667 274.082 454.233 273.558 454.816C269.932 458.162 265.109 457.548 260.515 457.468C255.833 457.119 253.131 455.919 250.032 452.291C245.449 445.893 244.602 441.026 244.696 433.216C244.685 432.099 244.674 430.982 244.663 429.831C244.634 426.167 244.648 422.505 244.663 418.841C244.652 416.289 244.638 413.738 244.621 411.186C244.584 404.492 244.584 397.799 244.591 391.105C244.592 384.266 244.558 377.427 244.528 370.587C244.473 357.184 244.455 343.781 244.464 330.377C243.821 332.173 243.179 333.968 242.537 335.764C242.18 336.764 241.822 337.764 241.454 338.794C239.852 343.301 238.293 347.823 236.741 352.348C236.444 353.21 236.147 354.072 235.842 354.96C235.547 355.817 235.253 356.674 234.95 357.556C234.693 358.306 234.435 359.056 234.17 359.828C231.657 367.294 229.263 374.799 226.884 382.31C226.262 384.27 225.639 386.23 225.015 388.191C224.048 391.234 223.082 394.278 222.119 397.323C221.179 400.293 220.234 403.262 219.289 406.231C219.007 407.126 218.725 408.021 218.435 408.943C216.718 414.32 214.801 419.568 212.686 424.797C211.39 428.115 210.388 431.486 209.361 434.901C206.522 443.857 202.789 453.48 194.426 458.301C189.565 459.351 185.292 459.435 180.831 457.026C173.391 450.969 170.508 442.649 167.628 433.686C167.178 432.295 166.727 430.904 166.276 429.514C166.039 428.783 165.801 428.052 165.557 427.298C164.269 423.361 162.947 419.435 161.624 415.51C161.349 414.69 161.073 413.87 160.789 413.026C159.657 409.663 158.523 406.302 157.39 402.94C153.686 391.95 150.03 380.947 146.435 369.92C144.358 363.558 142.275 357.199 140.193 350.839C138.934 346.995 137.676 343.151 136.418 339.307C135.982 337.975 135.546 336.643 135.11 335.311C134.802 334.369 134.494 333.428 134.176 332.458C134.17 333.809 134.164 335.161 134.158 336.554C134.1 349.301 134.025 362.048 133.936 374.795C133.89 381.349 133.85 387.902 133.822 394.455C133.796 400.78 133.755 407.106 133.703 413.431C133.686 415.843 133.674 418.255 133.668 420.667C133.658 424.048 133.63 427.429 133.597 430.81C133.598 431.805 133.6 432.8 133.601 433.825C133.477 442.811 130.998 448.598 124.986 455.181C119.992 458.571 114.482 457.84 108.647 457.261C103.367 454.861 100.278 450.83 97.4137 445.821C96.3931 442.703 96.2594 440.632 96.2491 437.374C96.2433 436.272 96.2374 435.17 96.2314 434.034C96.2303 432.825 96.2291 431.616 96.228 430.37C96.2204 428.46 96.2204 428.46 96.2126 426.511C96.2002 423.014 96.1926 419.518 96.1881 416.021C96.1851 413.834 96.1809 411.647 96.1763 409.46C96.1624 402.61 96.1525 395.761 96.1486 388.911C96.144 381.018 96.1261 373.125 96.0965 365.232C96.0743 359.123 96.0641 353.014 96.0627 346.906C96.0617 343.261 96.0557 339.617 96.0374 335.973C96.0173 331.9 96.0219 327.828 96.0285 323.755C96.0191 322.558 96.0097 321.362 96 320.129C96.0614 308.045 99.0981 299.946 107.211 291.177C116.877 281.913 131.483 278.921 143.367 285.656Z" fill="url(#paint0_linear_0_1)"/>
    <path d="M378.92 282.649C390.682 289.43 394.71 296.756 398.735 309.74C399.834 313.125 401.197 316.287 402.659 319.52C407.083 329.596 410.81 340.003 414.568 350.351C417.641 358.701 421.018 366.904 424.503 375.083C429.91 387.776 435.1 400.518 439.77 413.515C440.67 416.001 441.598 418.475 442.53 420.949C443.104 422.512 443.677 424.074 444.25 425.638C444.511 426.321 444.773 427.004 445.043 427.708C447.191 433.717 447.544 439.61 446.233 445.841C443.764 449.996 440.26 454.636 435.659 456.33C429.708 457.239 424.194 457.638 418.719 454.9C414.394 450.925 411.616 446.975 409.441 441.475C409.05 440.506 408.66 439.536 408.257 438.538C406.297 433.158 404.568 427.693 402.786 422.249C370.353 421.733 370.353 421.733 337.265 421.206C336.589 424.303 335.913 427.4 335.217 430.591C332.358 440.478 329.302 450.23 320.5 456.139C314.666 458.597 310.119 458.622 304.376 456.204C299.451 453.379 296.491 449.392 294.266 444.147C292.151 434.171 303.352 409.084 303.352 409.084C302.762 411.055 304.044 407.147 303.352 409.084C305.036 403.726 307.12 398.74 309.467 393.654C310.849 390.504 311.878 387.319 312.898 384.033C314.201 380.136 315.832 376.386 317.413 372.599C319.3 367.918 321.016 363.177 322.695 358.414C323.955 354.907 325.339 351.577 327.023 348.257C329.145 344.041 330.672 339.73 332.146 335.243C333.985 329.789 335.897 324.475 338.3 319.247C339.576 316.325 340.649 313.344 341.744 310.347C346.464 297.889 350.282 289.347 361.775 282.351C367.157 280.115 373.507 280.967 378.92 282.649Z" fill="url(#paint1_linear_0_1)"/>
    <path d="M486.128 282.463C491.854 285.338 496.618 290.201 499.478 296.003C499.571 297.801 499.599 299.602 499.595 301.402C499.594 302.528 499.594 303.654 499.594 304.814C499.589 306.034 499.584 307.253 499.578 308.509C499.577 309.755 499.575 311 499.574 312.283C499.568 316.274 499.555 320.264 499.542 324.254C499.537 326.954 499.532 329.655 499.528 332.355C499.517 338.985 499.5 345.615 499.478 352.245C500.541 352.238 501.604 352.231 502.7 352.224C512.703 352.161 522.707 352.114 532.711 352.083C537.854 352.067 542.997 352.045 548.141 352.01C553.101 351.976 558.061 351.957 563.022 351.949C564.918 351.943 566.813 351.932 568.709 351.915C566.061 351.913 571.358 351.892 568.709 351.915C567.896 351.927 569.499 351.904 568.709 351.915C570.891 351.928 581.228 351.87 584.711 352.245C585.728 353.792 585.728 353.792 586.765 355.37C589.375 355.717 589.375 355.717 591.899 355.37C593.28 354.205 593.677 353.808 594.191 351.204C593.677 348.6 593.28 348.202 591.899 347.038C589.375 346.777 589.375 346.777 586.765 347.038C585.748 348.069 585.748 348.069 584.711 349.121C581.892 349.272 571.095 349.185 568.281 349.121C569.079 349.13 567.506 349.111 568.281 349.121C570.194 349.161 566.367 349.096 568.281 349.121C568.15 341.709 568.06 334.297 567.999 326.884C567.973 324.365 567.938 321.845 567.893 319.326C567.831 315.696 567.802 312.067 567.779 308.436C567.753 307.317 567.726 306.198 567.699 305.046C567.696 297.901 568.801 293.178 573.415 287.671C578.337 283.035 582.082 282.235 588.582 282.288C591.353 282.5 593.544 283.257 596.007 284.546C596.007 283.838 596.007 285.234 596.007 284.546C595.396 284.303 596.6 284.783 596.007 284.546C599.839 287.15 603.831 292.73 605.249 297.045C605.355 298.944 605.402 300.847 605.415 302.75C605.425 303.918 605.434 305.086 605.445 306.29C605.451 308.184 605.451 308.184 605.458 310.117C605.464 311.415 605.47 312.713 605.476 314.051C605.485 316.801 605.492 319.551 605.496 322.301C605.5 325.117 605.515 327.932 605.538 330.747C605.569 334.807 605.58 338.865 605.586 342.924C605.599 344.181 605.612 345.438 605.625 346.732C605.606 353.707 605.449 359.02 600.592 364.41C596.235 367.868 596.235 367.868 593.953 367.868C593.953 368.556 593.953 369.243 593.953 369.951C594.525 370.016 595.097 370.08 595.686 370.146C599.623 371.55 602.169 374.534 604.354 378.081C605.482 380.962 605.54 383.311 605.58 386.411C605.6 387.628 605.62 388.845 605.64 390.099C605.649 391.412 605.657 392.725 605.666 394.077C605.678 395.434 605.69 396.79 605.702 398.188C605.723 401.061 605.735 403.934 605.743 406.808C605.754 410.464 605.803 414.119 605.862 417.775C605.91 421.289 605.913 424.803 605.923 428.317C605.949 429.617 605.974 430.917 606 432.257C605.958 440.702 604.542 446.722 599.088 453.273C593.92 457.718 589.172 457.804 582.601 457.724C576.936 457.191 574.441 454.393 570.715 450.325C566.94 444.833 567.644 438.731 567.779 432.284C567.786 430.977 567.794 429.669 567.801 428.322C567.825 424.868 567.871 421.415 567.928 417.962C567.981 414.429 568.004 410.896 568.03 407.363C568.086 400.446 568.172 393.531 568.281 386.616C567.192 386.62 566.103 386.625 564.981 386.63C554.735 386.672 544.49 386.703 534.245 386.724C528.977 386.734 523.709 386.749 518.442 386.773C513.361 386.795 508.281 386.808 503.201 386.813C501.259 386.817 499.318 386.825 497.376 386.836C494.664 386.851 491.952 386.853 489.24 386.852C488.431 386.86 487.622 386.867 486.789 386.875C481.228 386.853 481.228 386.853 478.94 384.533C476.373 384.185 476.373 384.185 473.805 384.533C472.789 385.564 472.347 386.852 471.989 388.178C472.502 390.782 472.502 390.782 473.529 392.344C475.991 393.052 476.847 392.865 478.664 392.865C479.68 391.834 478.93 391.834 479.967 390.782C481.991 390.545 481.991 390.545 484.435 390.578C485.746 390.588 485.746 390.588 487.083 390.599C488.453 390.625 488.453 390.625 489.851 390.651C490.772 390.661 491.693 390.67 492.643 390.68C494.921 390.705 497.2 390.739 499.478 390.782C499.53 397.935 499.566 405.089 499.591 412.243C499.601 414.675 499.615 417.108 499.633 419.541C499.658 423.041 499.669 426.542 499.679 430.042C499.689 431.126 499.7 432.21 499.711 433.327C499.712 440.476 499.335 446.4 494.472 451.971C493.966 452.567 493.46 453.163 492.939 453.778C488.284 458.161 483.286 458.06 477.167 457.976C471.832 457.124 468.856 454.367 465.59 450.149C462.908 446.239 462.122 443.637 462.111 438.887C462.096 437.099 462.096 437.099 462.081 435.274C462.088 433.996 462.094 432.718 462.1 431.401C462.097 430.08 462.094 428.759 462.091 427.398C462.089 424.606 462.093 421.816 462.108 419.025C462.125 415.456 462.115 411.888 462.097 408.319C462.083 404.904 462.093 401.488 462.1 398.072C462.094 396.794 462.088 395.516 462.081 394.199C462.091 393.007 462.101 391.815 462.111 390.586C462.113 389.541 462.116 388.495 462.118 387.417C462.712 383.04 464.784 380.425 467.332 376.948C470.677 374.418 473.757 374.591 477.767 374.653C478.576 374.649 479.384 374.645 480.217 374.641C482.886 374.633 485.554 374.655 488.222 374.679C490.076 374.681 491.93 374.682 493.784 374.682C497.667 374.685 501.55 374.702 505.433 374.73C510.417 374.766 515.401 374.773 520.385 374.772C524.212 374.772 528.039 374.784 531.866 374.799C533.704 374.806 535.543 374.81 537.381 374.811C539.945 374.816 542.509 374.834 545.073 374.856C544.286 374.857 545.837 374.855 545.073 374.856C550.327 374.923 552.642 374.92 554.931 377.242C557.498 377.589 557.498 377.589 560.065 377.242C562.461 375.272 562.357 375.159 562.87 372.034C562.357 368.91 562.46 369.026 561.092 367.868C558.055 367.521 558.055 367.521 554.931 367.868C554.253 368.899 553.575 369.93 552.877 370.993C550.274 371.324 545.555 371.483 542.947 371.478C543.751 371.468 542.167 371.489 542.947 371.478C540.359 371.508 537.771 371.514 535.183 371.518C533.384 371.528 531.586 371.538 529.787 371.549C526.01 371.568 522.233 371.574 518.456 371.572C513.626 371.571 508.798 371.614 503.968 371.668C500.249 371.703 496.531 371.709 492.812 371.707C491.032 371.711 489.252 371.725 487.473 371.749C471.799 371.942 471.799 371.942 467.137 368.018C463.445 363.864 462.249 360.849 462.211 355.245C462.198 353.93 462.185 352.616 462.171 351.262C462.168 349.826 462.166 348.389 462.164 346.952C462.158 345.477 462.151 344.002 462.144 342.527C462.131 339.434 462.128 336.341 462.129 333.247C462.129 329.293 462.101 325.34 462.066 321.386C462.043 318.338 462.039 315.291 462.04 312.243C462.037 310.786 462.028 309.328 462.012 307.871C461.992 305.828 462.001 303.784 462.01 301.74C462.006 299.999 462.006 299.999 462.002 298.223C462.812 293.018 465.411 289.787 469.248 286.369C475.055 282.141 479.026 281.332 486.128 282.463Z" fill="url(#paint2_linear_0_1)"/>
    <path d="M392 391C392 388.376 377.638 349.71 371 330C369.601 333.551 352.5 382.729 351 391H392Z" fill="#F9FCFC"/>
    <path d="M247 304.182C247 303.662 246.491 301.064 245.474 300.544C244.075 299.829 241.405 300.024 241.405 300.024C237.785 300.1 236.763 303.792 236.763 303.792C236.763 303.792 236.465 306.116 236.318 306.78H229.197C229.197 306.78 199.257 384.255 198.677 385.77C199.025 385.77 199.369 385.787 199.709 385.803C200.045 385.819 200.378 385.835 200.711 385.835L230.214 308.924H237.335C236.303 311.546 207.833 385.77 207.833 385.77C206.307 388.174 191.881 397.787 191.555 398.242C188.504 396.683 187.486 396.683 184.434 398.307C184.434 398.307 184.235 397.201 183.925 396.489C183.616 395.776 182.352 393.033 180.365 391.811C179.794 391.461 178.839 391.032 178.839 391.032C178.839 391.032 177.946 390.463 177.313 390.252C175.991 389.813 174.261 389.733 174.261 389.733C173.722 387.03 165.105 365.828 165.105 365.828L166.122 363.749C166.122 363.749 166.466 361.95 166.122 361.151C165.866 360.556 165.105 359.852 165.105 359.852C165.105 359.852 164.321 358.747 162.562 358.747C161.482 358.747 160.883 358.946 160.018 359.852C159.287 360.617 159.019 361.316 159.001 362.385C158.982 363.501 159.251 364.253 160.018 365.048C160.9 365.963 163.07 365.828 163.07 365.828C163.553 368.773 172.226 391.032 172.226 391.032C172.226 391.032 174.068 391.597 175.278 391.811C176.067 391.951 179.348 393.89 179.348 393.89C179.348 393.89 181.921 395.065 182.4 400.386C181.891 401.685 181.891 402.205 181.891 403.959C181.891 404.024 182.331 406.552 183.417 407.661C184.488 408.756 184.995 409.274 185.607 409.558C186.157 409.812 186.791 409.877 187.995 410C189.199 409.877 189.833 409.812 190.383 409.558C190.994 409.274 191.501 408.756 192.573 407.661C193.59 406.037 193.599 404.836 193.59 403.959C193.581 403.019 193.59 401.88 192.573 400.386C192.573 400.386 207.324 391.032 210.885 385.77L240.387 308.859C240.387 308.859 242.931 308.924 243.626 308.924C244.286 308.924 245.474 307.884 245.474 307.884C245.983 307.3 247 305.806 247 304.182Z" fill="white"/>
    <path d="M135.348 300C137.925 300.26 138.724 299.894 139.986 301.299C141.101 302.539 141.362 303.792 141.532 305.457C141.657 306.668 141.335 307.4 141.017 308.575C140.78 309.45 139.967 310.599 139.986 310.654C140.68 312.644 154.729 354.405 155.447 356.386L153.386 362.622L166.785 392.764C166.415 391.918 167.144 393.584 166.785 392.764L174 399H170.908L163.756 392.764C164.238 394.089 163.289 391.478 163.756 392.764C164.018 393.479 163.502 392.069 163.756 392.764C163.756 392.764 151.586 365.461 150.294 362.622L152.355 356.386C152.355 356.386 141.564 321.592 136.894 310.654C136.065 310.332 134.65 310.482 133.802 310.134C131.154 309.046 131.191 308.923 130.71 307.535C129.878 305.137 129.655 304.067 130.71 302.339C131.771 300.599 132.771 300.26 135.348 300Z" fill="white"/>
    <path d="M358.718 401.586C359.744 402.528 359.744 402.528 360 404.766C359.744 407.239 359.744 407.239 358.526 409.006C356.667 410.066 356.667 410.066 354.038 409.948C351.538 409.124 351.538 409.083 350 406.297C350 403.941 350 403.941 351.026 402.057C354.103 400.703 355.339 400.769 358.718 401.586Z" fill="#DFF7FF"/>
    <defs>
        <linearGradient id="paint0_linear_0_1" x1="189" y1="282" x2="189" y2="459" gradientUnits="userSpaceOnUse">
            <stop stop-color="#2D76C8"/>
            <stop offset="1" stop-color="#163A62"/>
        </linearGradient>
        <linearGradient id="paint1_linear_0_1" x1="316.75" y1="369.635" x2="427.83" y2="369.635" gradientUnits="userSpaceOnUse">
            <stop stop-color="#36B5C9"/>
            <stop offset="1" stop-color="#2B8897"/>
        </linearGradient>
        <linearGradient id="paint2_linear_0_1" x1="534" y1="282" x2="534" y2="458" gradientUnits="userSpaceOnUse">
            <stop stop-color="#143861"/>
            <stop offset="1" stop-color="#2973C7"/>
        </linearGradient>
    </defs>
</svg>
